<svg width="960" height="600" viewBox="0 0 960 600" fill="none" xmlns="http://www.w3.org/2000/svg"><rect width="960" height="600" fill="#08111F"/><rect x="64" y="58" width="832" height="484" rx="28" fill="#0F172A" stroke="#2DD4BF" stroke-opacity=".28"/><rect x="104" y="102" width="292" height="396" rx="18" fill="#111827"/><rect x="432" y="102" width="424" height="178" rx="18" fill="#101B2D"/><rect x="432" y="312" width="424" height="186" rx="18" fill="#101B2D"/><circle cx="250" cy="218" r="72" fill="#2DD4BF" fill-opacity=".14"/><path d="M210 224C224 188 276 188 290 224M216 250C235 274 265 274 284 250" stroke="#67E8F9" stroke-width="14" stroke-linecap="round"/><path d="M492 158H790M492 204H742M492 358H806M492 404H712M492 450H778" stroke="#CBD5E1" stroke-opacity=".55" stroke-width="18" stroke-linecap="round"/><circle cx="792" cy="222" r="24" fill="#38BDF8"/><circle cx="812" cy="432" r="32" fill="#2DD4BF"/></svg>
