<svg width="960" height="600" viewBox="0 0 960 600" fill="none" xmlns="http://www.w3.org/2000/svg"><rect width="960" height="600" fill="#071019"/><rect x="70" y="64" width="820" height="472" rx="28" fill="#0F172A" stroke="#38BDF8" stroke-opacity=".25"/><rect x="116" y="116" width="208" height="132" rx="18" fill="#112033"/><rect x="376" y="116" width="208" height="132" rx="18" fill="#112033"/><rect x="636" y="116" width="208" height="132" rx="18" fill="#112033"/><rect x="116" y="294" width="728" height="184" rx="18" fill="#101B2D"/><path d="M162 406C230 354 285 426 346 386C410 344 458 376 516 346C578 314 636 366 696 328C742 299 786 318 812 300" stroke="#2DD4BF" stroke-width="12" stroke-linecap="round"/><circle cx="220" cy="182" r="34" fill="#2DD4BF" fill-opacity=".22" stroke="#2DD4BF" stroke-width="10"/><path d="M480 156V208M454 182H506" stroke="#67E8F9" stroke-width="14" stroke-linecap="round"/><path d="M714 198C726 172 754 172 766 198" stroke="#FBBF24" stroke-width="12" stroke-linecap="round"/><path d="M712 166C736 141 764 141 788 166" stroke="#FBBF24" stroke-opacity=".55" stroke-width="10" stroke-linecap="round"/></svg>
