<svg width="960" height="600" viewBox="0 0 960 600" fill="none" xmlns="http://www.w3.org/2000/svg"><rect width="960" height="600" fill="#090E18"/><rect x="72" y="66" width="816" height="468" rx="28" fill="#0F172A" stroke="#94A3B8" stroke-opacity=".22"/><rect x="112" y="110" width="188" height="380" rx="18" fill="#111827"/><rect x="336" y="110" width="512" height="76" rx="18" fill="#101B2D"/><rect x="336" y="226" width="148" height="216" rx="18" fill="#112033"/><rect x="518" y="226" width="148" height="216" rx="18" fill="#112033"/><rect x="700" y="226" width="148" height="216" rx="18" fill="#112033"/><path d="M148 164H260M148 220H240M148 276H264M148 332H228" stroke="#CBD5E1" stroke-opacity=".5" stroke-width="16" stroke-linecap="round"/><path d="M376 148H644M378 282H442M560 282H624M742 282H806" stroke="#E2E8F0" stroke-opacity=".62" stroke-width="16" stroke-linecap="round"/><rect x="376" y="334" width="68" height="24" rx="12" fill="#2DD4BF"/><rect x="558" y="334" width="68" height="24" rx="12" fill="#38BDF8"/><rect x="740" y="334" width="68" height="24" rx="12" fill="#FBBF24"/></svg>
